# xmcd
#
# Track frame offsets:
# 150
# 12633
# 25580
# 39650
# 53733
# 69860
# 86639
# 102842
# 113673
# 129386
# 139210
# 154426
# 165235
# 185294
# 200811
# 214851
# 227010
# 242067
# 253325
# 267440
# 280749
#
# Disc length: 3904 seconds
#
#
# Revision: 0
# Processed by: cddbd v1.5.1PL2 Copyright (c) Steve Scherf et al.
# Submitted via: FreeRIP 2.944 
#
DISCID=2a0f3e15
DTITLE=Teodoro and Sampaio - Teodoro and Sampaio 2006
DYEAR=2006
DGENRE=Country
TTITLE0=Põe e Tira
TTITLE1=Tonto de Paixão
TTITLE2=Meu Amor Brigou Comigo
TTITLE3=Maria Pensão
TTITLE4=O Tocador
TTITLE5=O Tocador
TTITLE6=Toco de Saia
TTITLE7=Namorar e Chupar Cana
TTITLE8=Ela Mexe Comigo
TTITLE9=O Amor é Cego
TTITLE10=O Garrafão
TTITLE11=Garanhão da Madrugada
TTITLE12=Giripóca
TTITLE13=A Solteirona
TTITLE14=Alo Mulherada
TTITLE15=Aqi Pra Ela
TTITLE16=Canta Minha Vizinha
TTITLE17=O Gavião
TTITLE18=Ham Ham ham
TTITLE19=O Pau Quebrou
TTITLE20=Sai Fora
EXTD=Topógrafo Café
EXTT0=
EXTT1=
EXTT2=
EXTT3=
EXTT4=
EXTT5=
EXTT6=
EXTT7=
EXTT8=
EXTT9=
EXTT10=
EXTT11=
EXTT12=
EXTT13=
EXTT14=
EXTT15=
EXTT16=
EXTT17=
EXTT18=
EXTT19=
EXTT20=
PLAYORDER=
